<?xml version="1.0" encoding="UTF-8"?>
<svg xmlns="http://www.w3.org/2000/svg" width="41" height="27" viewBox="0 0 41 27" fill="none">
  <path d="M23.156 0.40927C23.4071 0.277653 23.6397 0.107898 23.9029 0C25.7623 3.23137 27.6389 6.45298 29.5048 9.68063C30.9145 12.1167 32.3255 14.5523 33.737 16.9875C33.8658 17.2154 34.0077 17.4363 34.1212 17.6726C31.486 17.6754 28.8504 17.6707 26.2153 17.6749C25.7883 16.9768 25.3958 16.2578 24.9824 15.5513C22.6444 11.4958 20.3046 7.44128 17.9694 3.38439C19.6958 2.38818 21.4273 1.40082 23.156 0.40927Z" fill="#0C1B43"></path>
  <path d="M11.2054 9.59691C13.1769 8.46072 15.1479 7.32313 17.1189 6.18555C19.0964 9.59458 21.0642 13.0087 23.0398 16.4187C23.2724 16.8391 23.5347 17.2437 23.7505 17.673C21.6934 17.6739 19.6359 17.6726 17.5789 17.6739C17.5775 18.2344 17.5756 18.7943 17.5798 19.3547C17.0129 19.3552 16.4459 19.3561 15.879 19.3547C15.8781 18.8204 15.8781 18.2865 15.879 17.7525C15.886 17.6684 15.8404 17.5958 15.8004 17.5261C14.3382 15.0179 12.8848 12.5041 11.4245 9.99455C11.3487 9.8634 11.2631 9.73736 11.2054 9.59691Z" fill="#0C1B43"></path>
  <path d="M9.25025 12.7902C9.57022 12.6181 9.86927 12.4074 10.2013 12.259C10.8604 13.4064 11.524 14.5514 12.1863 15.6969C12.5598 16.3559 12.9565 17.0028 13.3155 17.6702C10.6859 17.6786 8.05639 17.6698 5.42683 17.6749C5.03802 17.0056 4.65107 16.335 4.27017 15.6611C5.93237 14.7077 7.59038 13.7473 9.25025 12.7902Z" fill="#0C1B43"></path>
  <path d="M13.362 17.6559C13.9247 17.6619 14.4875 17.6545 15.0502 17.6591C15.0442 20.7008 15.0507 23.7419 15.047 26.7831C14.4861 26.7873 13.9252 26.7863 13.3639 26.7826C13.3601 26.638 13.3615 26.4933 13.3587 26.3487C12.9099 26.6161 12.4225 26.8352 11.8993 26.8993C10.9906 27.0444 10.0274 26.8166 9.28371 26.2724C8.6405 25.8218 8.16659 25.1423 7.94242 24.3916C7.75081 23.7112 7.75778 22.969 7.98288 22.2974C8.27542 21.4337 8.91816 20.6956 9.73484 20.2896C10.8673 19.7153 12.3039 19.785 13.3592 20.4998C13.3639 19.552 13.3583 18.6037 13.362 17.6559ZM10.9873 21.51C10.3278 21.6528 9.76228 22.1555 9.53811 22.7918C9.42602 23.0815 9.4223 23.3992 9.453 23.7042C9.54415 24.2814 9.92273 24.7949 10.4283 25.0809C10.884 25.3437 11.4501 25.4176 11.9542 25.2595C12.4551 25.1065 12.8927 24.7549 13.1388 24.2907C13.3569 23.8726 13.4243 23.3712 13.2899 22.9159C13.1332 22.3323 12.689 21.8393 12.1314 21.6109C11.7742 21.4519 11.3673 21.4295 10.9873 21.51Z" fill="#0C1B43"></path>
  <path d="M23.7872 17.6684C24.3462 17.646 24.9057 17.6619 25.4647 17.6595C25.4596 20.6993 25.4647 23.74 25.4624 26.7797C24.9047 26.783 24.3457 26.8011 23.7895 26.7686C23.789 26.6314 23.7904 26.4937 23.7872 26.357C23.2063 26.7174 22.5347 26.9383 21.8478 26.9407C20.9097 26.9672 19.9693 26.5886 19.307 25.9245C18.7634 25.4036 18.3978 24.7008 18.2829 23.9567C18.1569 23.1447 18.3178 22.2871 18.7522 21.5871C19.1531 20.9374 19.7675 20.4202 20.4814 20.1482C21.552 19.7329 22.8319 19.8463 23.7839 20.5002C23.7951 19.5566 23.7895 18.6125 23.7872 17.6684ZM21.585 21.483C20.5762 21.5978 19.7651 22.6173 19.9023 23.627C19.9972 24.5111 20.7748 25.2608 21.6594 25.3324C22.3649 25.4012 23.0867 25.0399 23.4755 24.4511C23.7927 23.9962 23.8727 23.394 23.7123 22.8666C23.449 21.9815 22.5077 21.3425 21.585 21.483Z" fill="#0C1B43"></path>
  <path d="M38.7493 17.8316C39.2399 17.7149 39.7715 18.0874 39.8218 18.5906C39.8892 19.0715 39.4781 19.5338 39.0009 19.5584C38.6023 19.598 38.2107 19.3152 38.1075 18.932C37.9507 18.472 38.2744 17.9269 38.7493 17.8316ZM38.7911 17.9483C38.5172 18.0097 38.2837 18.2283 38.2163 18.5027C38.1065 18.8822 38.3637 19.3087 38.7409 19.4096C39.1758 19.5468 39.6794 19.1841 39.6994 18.7306C39.739 18.2627 39.2455 17.8414 38.7911 17.9483Z" fill="#0C1B43"></path>
  <path d="M38.6284 18.2037C38.8242 18.2112 39.0511 18.1544 39.2185 18.2856C39.3399 18.4023 39.2902 18.5851 39.2116 18.7116C39.3246 18.84 39.2925 19.02 39.313 19.1771C39.2692 19.1748 39.1818 19.1702 39.1381 19.1678C39.1372 19.0423 39.132 18.9153 39.0874 18.7972C38.9907 18.793 38.8939 18.7911 38.7981 18.7893C38.7977 18.9181 38.7972 19.0469 38.7977 19.1758C38.7553 19.1739 38.6702 19.1697 38.6279 19.1678C38.6312 18.8465 38.6312 18.5251 38.6284 18.2037ZM38.7967 18.3688C38.7977 18.4549 38.7981 18.5405 38.7986 18.627C38.9167 18.6297 39.0381 18.6228 39.1413 18.5567C39.1344 18.5219 39.1204 18.4516 39.1134 18.4163C39.0325 18.3377 38.8995 18.3809 38.7967 18.3688Z" fill="#0C1B43"></path>
  <path d="M2.38746 20.0952C3.42831 19.7422 4.6338 19.8836 5.54907 20.4994C5.55186 20.3245 5.55047 20.1496 5.55233 19.9748C6.11089 19.9762 6.66992 19.9711 7.22848 19.9776C7.22383 22.2453 7.22569 24.5126 7.22755 26.7803C6.66899 26.791 6.11043 26.7845 5.5514 26.7826C5.55093 26.638 5.55279 26.4933 5.54814 26.3492C4.96261 26.7291 4.26964 26.9435 3.57016 26.9398C2.7 26.9584 1.83495 26.6222 1.18663 26.0455C0.614113 25.5311 0.203448 24.8325 0.0629936 24.0735C-0.106761 23.1936 0.0681093 22.2448 0.569 21.4984C0.997804 20.8473 1.64566 20.3403 2.38746 20.0952ZM3.35343 21.4784C2.38746 21.583 1.57404 22.4997 1.63217 23.4782C1.64101 24.5521 2.69953 25.4581 3.76038 25.332C4.66914 25.259 5.4835 24.4888 5.54721 23.5684C5.60953 22.8922 5.26584 22.2085 4.71054 21.8263C4.3194 21.5542 3.82874 21.4151 3.35343 21.4784Z" fill="#0C1B43"></path>
  <path d="M28.0268 20.2505C29.1365 19.7199 30.5303 19.7989 31.5493 20.4984C31.5516 20.324 31.5493 20.1501 31.5502 19.9757C32.1195 19.9743 32.6883 19.9733 33.2576 19.9761C33.2576 22.242 33.2566 24.5079 33.258 26.7737C32.6902 26.7998 32.1209 26.7779 31.5526 26.7858C31.5493 26.6417 31.5512 26.4975 31.5489 26.3538C30.9731 26.7203 30.301 26.944 29.6151 26.9393C28.6556 26.9649 27.6975 26.5626 27.0343 25.8706C26.5353 25.3687 26.1963 24.7102 26.073 24.013C25.9223 23.1801 26.0958 22.2918 26.5441 21.5742C26.8943 20.9993 27.4203 20.5394 28.0268 20.2505ZM29.2156 21.5095C28.7281 21.6174 28.2905 21.923 28.011 22.3346C27.6757 22.815 27.5761 23.4549 27.771 24.0098C28.0505 24.8539 28.9588 25.4459 29.8457 25.3278C30.3903 25.2678 30.8898 24.9511 31.207 24.5088C31.5219 24.0633 31.633 23.4791 31.4972 22.9503C31.3456 22.3411 30.8857 21.8146 30.2983 21.5904C29.956 21.4532 29.5746 21.4314 29.2156 21.5095Z" fill="#0C1B43"></path>
  <path d="M35.7778 20.0487C36.4894 19.8524 37.2558 19.858 37.9683 20.0487C38.5469 20.2105 39.0938 20.5514 39.4194 21.0663C39.6291 21.3858 39.738 21.762 39.7766 22.1401C39.2092 22.1443 38.6413 22.1341 38.0739 22.1448C38.026 21.9397 38.0214 21.7067 37.8739 21.5411C37.7046 21.3202 37.4144 21.2472 37.1507 21.2216C36.7991 21.2118 36.4271 21.2025 36.1029 21.3583C35.9141 21.4453 35.7922 21.6448 35.7866 21.8499C35.8071 22.0388 35.9527 22.1866 36.1173 22.2666C36.414 22.4127 36.7456 22.4624 37.0679 22.522C37.7451 22.642 38.4557 22.7103 39.0664 23.0531C39.4217 23.2396 39.7217 23.5372 39.8956 23.9009C40.103 24.3618 40.0733 24.8906 39.9342 25.3659C39.777 25.8668 39.4073 26.2868 38.9441 26.5282C38.2823 26.8788 37.5158 26.9574 36.7787 26.9379C36.0327 26.9123 35.2578 26.7188 34.6784 26.2268C34.2026 25.831 33.9133 25.2269 33.8975 24.6088C34.4905 24.5999 35.0834 24.6055 35.6764 24.6055C35.6811 24.9078 35.8225 25.2129 36.0727 25.3892C36.3936 25.6245 36.8094 25.6822 37.1982 25.6738C37.5623 25.6557 37.9632 25.5013 38.1413 25.1627C38.2488 24.9762 38.2237 24.7148 38.0604 24.5683C37.8604 24.3842 37.5805 24.3386 37.3233 24.2879C36.5159 24.1474 35.669 24.08 34.9314 23.6935C34.117 23.2308 33.837 22.1113 34.2212 21.2807C34.5016 20.6463 35.1248 20.2273 35.7778 20.0487Z" fill="#0C1B43"></path>
  <path d="M15.8776 19.9762C16.4398 19.9729 17.0017 19.9743 17.5639 19.9766C17.5946 20.7389 17.5686 21.503 17.5774 22.2662C17.5774 23.5991 17.5774 24.9325 17.5774 26.2659C17.576 26.4347 17.5863 26.6049 17.5663 26.7738C17.0049 26.8021 16.4417 26.7752 15.8799 26.7877C15.8762 24.5172 15.8799 22.2467 15.8776 19.9762Z" fill="#0C1B43"></path>
</svg>
