<?xml version="1.0" encoding="UTF-8"?>
<svg xmlns="http://www.w3.org/2000/svg" width="61" height="21" viewBox="0 0 61 21" fill="none">
  <path d="M14.5458 0.059457C15.8467 -0.0688556 17.3092 -0.0569749 18.3844 0.797254C19.3218 1.51604 19.7187 2.73382 19.7163 3.87913C19.5618 6.03906 18.5983 8.03741 17.4898 9.8623C16.4312 11.604 15.1529 13.2044 13.7545 14.6859C11.8453 16.6296 9.69483 18.4224 7.16303 19.4881C5.80149 20.0774 4.27481 20.3352 2.80634 20.0715C1.73707 19.8754 0.74146 19.1864 0.297118 18.1777C-0.146035 17.1215 -0.0355445 15.9286 0.251971 14.8463C0.730767 13.2234 1.75252 11.8238 2.89545 10.6013C4.52787 8.94986 6.45256 7.5705 8.59586 6.66043C9.59741 6.24816 10.6489 5.90481 11.7371 5.8359C12.5866 5.80145 13.5739 6.02005 14.0646 6.78161C14.4341 7.27704 14.3176 7.92573 14.2559 8.49601C14.6753 7.82831 15.1921 7.22595 15.5794 6.53806C16.0713 5.67432 16.4859 4.74881 16.6392 3.76033C16.7354 3.11282 16.493 2.42492 15.994 1.99721C15.2752 1.3212 14.2131 1.25585 13.2781 1.33189C11.1752 1.60515 9.21128 2.50928 7.41253 3.59875C7.07393 3.81022 6.75552 4.05378 6.39434 4.22368C6.3884 4.14408 6.37652 3.98487 6.37058 3.90527C8.73367 2.01028 11.509 0.474097 14.5458 0.059457ZM11.3082 7.16893C9.59741 7.50396 8.08854 8.49363 6.81136 9.64726C6.02485 10.3767 5.31081 11.2227 4.89736 12.2218C4.62173 12.8741 4.77143 13.7283 5.3916 14.1299C6.03435 14.4507 6.80661 14.3473 7.46005 14.1097C9.11267 13.4931 10.4932 12.3513 11.7692 11.1632C12.431 10.4872 13.1022 9.74587 13.3268 8.79897C13.4242 8.34394 13.4206 7.78079 13.0369 7.45407C12.5593 7.05725 11.8868 7.09764 11.3082 7.16893Z" fill="#0C1B43"></path>
  <path d="M24.149 4.74643L24.2358 4.69296C25.4927 4.65851 26.7521 4.69178 28.0115 4.67871C28.9762 4.6395 29.9243 5.12899 30.4981 5.89768C30.9484 6.53568 31.0328 7.35426 30.9068 8.10869C30.1904 11.0064 29.3267 13.8721 28.6364 16.7757C27.1228 16.8351 25.6056 16.7841 24.0908 16.8019C23.1154 16.8173 22.0841 16.6759 21.2762 16.0855C20.4755 15.552 20.1096 14.5516 20.1238 13.6202C20.1654 12.4226 20.8141 11.3011 21.7313 10.5538C22.8564 9.633 24.288 9.02827 25.7577 9.06034C26.4919 9.05797 27.2262 9.06272 27.9604 9.06034C28.0744 8.5768 28.2895 8.0683 28.1386 7.57049C28.0138 7.17843 27.5362 7.13566 27.1893 7.12615C25.9715 7.11071 24.7549 7.12615 23.5372 7.12021C23.7047 6.32063 23.953 5.54006 24.149 4.74643ZM23.0881 13.1438C22.9788 13.7402 23.4861 14.3354 24.092 14.3176C24.9118 14.339 25.7327 14.3354 26.5537 14.3128C26.8163 13.3612 27.0658 12.4072 27.3022 11.4496C26.5882 11.4222 25.8717 11.427 25.1565 11.4353C24.2156 11.5054 23.2033 12.1422 23.0881 13.1438Z" fill="#0C1B43"></path>
  <path d="M31.9059 7.26519C32.5107 5.6898 34.2013 4.68706 35.8551 4.68468C37.1038 4.67756 38.3513 4.67993 39.5999 4.68231C39.4229 5.50802 39.171 6.31473 38.956 7.13094C37.8808 7.10837 36.8056 7.12619 35.7304 7.11787C35.3989 7.12381 35.0401 7.10599 34.749 7.29371C34.4758 7.44222 34.389 7.76419 34.256 8.02319C34.3748 8.30239 34.5328 8.57446 34.7989 8.73841C35.804 9.44057 37.0349 9.8362 37.8713 10.7712C38.5366 11.5126 38.6744 12.6044 38.3738 13.5335C38.0745 14.6158 37.4531 15.6732 36.442 16.2245C35.4417 16.8067 34.2453 16.8209 33.1213 16.8019C32.0675 16.8019 31.0137 16.8019 29.9587 16.7995C30.1725 15.9774 30.4054 15.1624 30.624 14.3414C32.0093 14.2962 33.3982 14.3687 34.7835 14.3046C35.4524 14.2998 36.0036 13.5596 35.7446 12.9288C35.393 12.3787 34.7668 12.1078 34.2203 11.7953C33.3114 11.2975 32.3396 10.7368 31.8525 9.78036C31.4343 8.99622 31.5863 8.05408 31.9059 7.26519Z" fill="#0C1B43"></path>
  <path d="M38.4023 16.7995C39.4574 12.7577 40.5005 8.71345 41.5626 4.67517C42.4335 4.68705 43.3044 4.66923 44.1752 4.68943C43.1915 8.73603 42.089 12.7565 41.0529 16.7912C40.169 16.8114 39.2851 16.7971 38.4023 16.7995Z" fill="#0C1B43"></path>
  <path d="M48.5688 5.09449C49.9529 4.59431 51.4439 4.68223 52.8886 4.68342C52.708 5.50557 52.4775 6.31465 52.2518 7.12492C51.3679 7.13561 50.4649 7.04532 49.6012 7.27581C48.1315 7.64292 46.8627 8.71814 46.2401 10.0951C45.9205 10.947 45.6794 11.926 46.037 12.8063C46.3471 13.6998 47.2678 14.3176 48.2052 14.3247C48.9953 14.3449 49.7854 14.3045 50.5754 14.3473C50.3556 15.1587 50.1442 15.9714 49.9386 16.7864C48.5082 16.7769 47.0052 16.9682 45.6461 16.411C44.6932 16.0189 43.8877 15.2526 43.5099 14.2879C42.9729 12.981 43.1048 11.4911 43.5634 10.1818C44.3321 7.8449 46.189 5.82516 48.5688 5.09449Z" fill="#0C1B43"></path>
  <path d="M55.6366 4.90798C56.3008 4.6668 57.0172 4.67393 57.7146 4.67987C58.7256 4.68343 59.7367 4.67749 60.7478 4.67749C60.5505 5.49964 60.3284 6.31585 60.1014 7.12969C58.9074 7.11543 57.7134 7.11543 56.5194 7.12493C56.0239 7.10355 55.5986 7.47898 55.4299 7.92213C55.3812 8.18708 55.5689 8.41044 55.7507 8.57677C56.2675 9.04962 56.9388 9.2908 57.5281 9.65673C58.2029 10.0571 58.9169 10.4896 59.3185 11.1894C59.8234 12.0329 59.7272 13.1045 59.372 13.9849C59.0191 15.0197 58.2766 15.9547 57.256 16.3896C56.4707 16.7413 55.5939 16.8137 54.7432 16.803C53.5444 16.7971 52.3468 16.8066 51.1481 16.7995C51.2906 15.9678 51.558 15.1635 51.7682 14.3485C53.1547 14.2867 54.5448 14.3758 55.9301 14.3021C56.5835 14.2926 57.1324 13.6178 56.9198 12.9774C56.5443 12.3893 55.8826 12.0864 55.2945 11.7561C54.3606 11.2464 53.365 10.644 52.9219 9.62703C52.5286 8.66825 52.8423 7.58947 53.3199 6.72218C53.8082 5.8323 54.7028 5.24658 55.6366 4.90798Z" fill="#0C1B43"></path>
</svg>
