<?xml version="1.0" encoding="UTF-8"?>
<svg xmlns="http://www.w3.org/2000/svg" width="32" height="32" viewBox="0 0 32 32" fill="none">
  <path opacity="0.4" d="M21.5867 2.66666H10.4134C5.56002 2.66666 2.66669 5.55999 2.66669 10.4133V21.5733C2.66669 26.44 5.56002 29.3333 10.4134 29.3333H21.5734C26.4267 29.3333 29.32 26.44 29.32 21.5867V10.4133C29.3334 5.55999 26.44 2.66666 21.5867 2.66666Z" fill="#959EB1"></path>
  <path d="M22.6666 11H9.33331C8.78665 11 8.33331 10.5467 8.33331 10C8.33331 9.45333 8.78665 9 9.33331 9H22.6666C23.2133 9 23.6666 9.45333 23.6666 10C23.6666 10.5467 23.2133 11 22.6666 11Z" fill="#959EB1"></path>
  <path d="M22.6666 17H9.33331C8.78665 17 8.33331 16.5467 8.33331 16C8.33331 15.4533 8.78665 15 9.33331 15H22.6666C23.2133 15 23.6666 15.4533 23.6666 16C23.6666 16.5467 23.2133 17 22.6666 17Z" fill="#959EB1"></path>
  <path d="M22.6666 23H9.33331C8.78665 23 8.33331 22.5467 8.33331 22C8.33331 21.4533 8.78665 21 9.33331 21H22.6666C23.2133 21 23.6666 21.4533 23.6666 22C23.6666 22.5467 23.2133 23 22.6666 23Z" fill="#959EB1"></path>
</svg>
