<?xml version="1.0" encoding="UTF-8"?>
<svg xmlns="http://www.w3.org/2000/svg" width="59" height="31" viewBox="0 0 59 31" fill="none">
  <path d="M13.9998 0.0606772C15.3302 0.064717 16.6593 0.0647167 17.9884 0.0593303C17.8511 2.42665 17.6922 4.79397 17.5535 7.1586C18.4947 4.81282 19.3391 2.42396 20.2345 0.0579834C21.4936 0.0714494 22.7527 0.0539436 24.0118 0.0674095C21.9959 5.3959 20.0083 10.7352 18.0167 16.0731C16.658 16.0839 15.2993 16.0798 13.9405 16.0744C14.1129 14.4046 14.1237 12.7227 14.2893 11.0516C14.3028 10.3648 14.4119 9.68347 14.4132 8.99805C13.5271 11.3519 12.6303 13.7031 11.7819 16.0717C10.5175 16.0879 9.25438 16.0758 7.99127 16.0771C10.0166 10.7473 11.9799 5.39321 13.9998 0.0606772Z" fill="#0C1B43"></path>
  <path d="M24.4924 0.0633995C25.7475 0.0607063 27.0025 0.0660927 28.2575 0.0633995C26.2767 5.40805 24.2851 10.7514 22.2652 16.0812C21.0074 16.0758 19.7497 16.0812 18.492 16.0771C19.9019 12.4777 21.2 8.83514 22.5803 5.22491C23.2078 3.49992 23.8784 1.79243 24.4924 0.0633995Z" fill="#0C1B43"></path>
  <path d="M28.8958 0.0660637C30.1657 0.0566375 31.4342 0.0701031 32.704 0.0593303C32.1263 1.66986 31.4948 3.26154 30.8942 4.86265C32.2475 3.28443 33.5295 1.64697 34.8721 0.0579834C38.7112 0.0754892 42.5504 0.0512507 46.3909 0.0687564C46.0205 0.946738 45.7 1.84492 45.362 2.73502C44.0895 2.73233 42.8156 2.72829 41.5431 2.73502C41.1108 3.85943 40.7055 4.99327 40.2867 6.12172C41.4933 6.12441 42.6998 6.12306 43.9077 6.12172C43.5576 7.11281 43.1738 8.09044 42.8089 9.07481C41.597 9.08154 40.385 9.07211 39.1731 9.08019C38.7031 10.3837 38.2022 11.6751 37.7268 12.9759C39.2014 12.9867 40.6772 12.9759 42.1531 12.9813C41.9781 13.3866 41.8124 13.7973 41.7114 14.2282C47.0507 12.7699 52.3926 11.3236 57.7346 9.87469C58.1399 9.75349 58.5479 9.61345 58.9789 9.61749C58.9236 9.80466 58.8051 9.9299 58.622 9.99588C48.1899 14.5151 37.7713 19.0666 27.3324 23.5736C23.1163 25.3888 18.9108 27.231 14.6717 28.995C12.6895 29.7868 10.6656 30.5463 8.53528 30.8089C6.2124 31.1173 3.74005 30.5557 1.92483 29.0368C0.613246 28.0618 -0.0627458 26.3988 0.0045841 24.7883C0.0826868 22.7509 0.840821 20.8131 1.73362 19.0046C3.29702 15.9869 5.30614 13.2156 7.51187 10.6369C6.74027 12.1976 6.14642 13.8714 5.99291 15.6152C5.86094 17.2298 6.3134 18.9521 7.47551 20.1236C8.77632 21.4245 10.6871 21.9564 12.4916 21.8958C13.6389 21.9012 14.735 21.5335 15.8365 21.2602C22.14 19.5177 28.4676 17.8506 34.7643 16.0946C32.9909 16.0327 31.2133 16.0973 29.4385 16.0744C29.4035 13.8552 29.3362 11.636 29.2514 9.41953C28.4232 11.6374 27.5546 13.8391 26.7507 16.065C25.4822 16.0946 24.2137 16.0717 22.9452 16.0771C24.9597 10.7527 26.9231 5.40667 28.8958 0.0660637ZM33.5618 5.98571C33.3625 6.23348 33.0541 6.41797 32.9626 6.73711C33.0191 8.70045 33.0097 10.6665 33.1242 12.6285C33.1646 13.4135 33.1134 14.204 33.2104 14.985C34.7441 10.8846 36.2739 6.7829 37.8103 2.6825C38.0581 1.91494 38.4284 1.18778 38.6129 0.401366C36.9445 2.27718 35.2451 4.12471 33.5618 5.98571Z" fill="#0C1B43"></path>
  <path d="M47.5597 0.0606066C48.0458 -0.158889 48.7164 0.247783 48.6774 0.798542C48.7487 1.44356 47.8681 1.89467 47.3766 1.47857C46.8406 1.15808 46.947 0.228931 47.5597 0.0606066ZM47.4829 0.38379C47.149 0.595206 47.2379 1.09075 47.4978 1.33045L47.2702 1.3493C47.3523 1.34391 47.5153 1.33449 47.5961 1.33045C47.9623 1.56745 48.47 1.22945 48.439 0.810662C48.4794 0.346085 47.8034 0.0175157 47.4829 0.38379Z" fill="#0C1B43"></path>
  <path d="M47.5462 0.453722C47.7266 0.288091 48.0377 0.386392 48.1805 0.554717C48.1145 0.81461 48.0862 1.07854 48.1158 1.34786C47.9946 1.19166 47.8707 1.0368 47.7468 0.884633C47.724 0.991014 47.6782 1.20647 47.6553 1.3142C47.4183 1.08528 47.4964 0.740548 47.5462 0.453722ZM47.7926 0.543944C47.5664 0.933111 48.2599 0.569529 47.7926 0.543944V0.543944Z" fill="#0C1B43"></path>
  <path d="M9.73242 18.9306C10.2401 18.8188 10.8164 19.2551 10.71 19.8031C10.6885 20.4347 9.82264 20.7498 9.36076 20.3472C8.82481 19.9674 9.04835 18.979 9.73242 18.9306ZM9.44963 19.3143C9.13184 19.6133 9.34729 20.094 9.61122 20.3512C9.57756 19.9836 9.46579 19.5715 9.65566 19.2255C9.76608 19.3897 9.80648 19.6146 9.99501 19.7156C10.0071 19.5904 10.0287 19.3386 10.0408 19.2133L10.2549 19.5231C10.2037 19.6119 10.1 19.7897 10.0489 19.8786L10.1943 19.9311C10.1068 19.9944 10.0206 20.0577 9.93575 20.1223C9.89536 20.0267 9.81456 19.8355 9.77551 19.7399C9.74723 19.9216 9.7203 20.1048 9.69337 20.2879C9.80783 20.2933 10.0341 20.3054 10.1485 20.3108C10.3357 20.1425 10.5013 19.9203 10.4582 19.651C10.4542 19.1568 9.75935 18.9454 9.44963 19.3143Z" fill="#0C1B43"></path>
</svg>
