<?xml version="1.0" encoding="UTF-8"?>
<svg xmlns="http://www.w3.org/2000/svg" width="47" height="24" viewBox="0 0 47 24" fill="none">
  <path d="M45.7685 0.132876C46.0323 0.0210123 46.3476 -0.0662572 46.6198 0.0682173C46.8907 0.205469 47.02 0.522019 46.9974 0.814769C46.9597 1.14877 46.8137 1.47088 46.5821 1.71523C46.3619 1.94491 46.0719 2.08652 45.7955 2.23488C45.5277 2.38046 45.2405 2.48677 44.9791 2.64386C44.7137 2.81086 44.4622 2.99849 44.2167 3.19286C43.7649 3.59668 43.4539 4.12744 43.1714 4.65622C43.1167 4.76173 43.0667 4.87003 43.008 4.97316C42.7442 5.55589 42.4812 6.1394 42.2376 6.73125C41.8957 7.41195 41.2892 7.90859 40.6684 8.3259C40.6581 8.35089 40.637 8.40127 40.6267 8.42666C40.7187 8.61944 40.8992 8.74916 41.0012 8.9356C41.2221 9.32871 41.3467 9.76624 41.4594 10.2006C41.5811 10.727 41.6652 11.2621 41.7029 11.8012C41.7565 12.3153 41.7315 12.8326 41.739 13.3483C41.7628 13.6696 41.9695 13.9306 42.1226 14.2007C42.2876 14.4899 42.6145 14.6081 42.8565 14.816C42.9695 14.9211 43.0417 15.0667 43.0623 15.2198C43.0786 15.3213 43.0679 15.4245 43.0742 15.5272C43.0762 15.8549 43.1952 16.1734 43.3737 16.4451C43.4721 16.609 43.6014 16.7645 43.6308 16.9596C43.6363 17.1143 43.5364 17.2449 43.4927 17.3881C43.417 17.7288 43.4546 18.0799 43.4741 18.4246C43.4761 18.4841 43.4435 18.5372 43.4265 18.5928C43.2186 18.6872 42.9814 18.6189 42.7763 18.5507C42.3685 18.3976 42.1044 18.0104 41.9826 17.607C41.8318 17.1167 41.8076 16.5967 41.8207 16.0869C41.8207 15.9239 41.862 15.7478 41.7735 15.5994C41.4161 15.334 41.0674 15.0564 40.7215 14.7755C39.8389 13.8751 39.0083 12.8853 38.5073 11.7159C38.3637 11.3696 38.2335 11.0178 38.0697 10.6806C38.042 10.6318 38.0185 10.581 37.9995 10.5291C37.7924 10.1451 37.5386 9.77259 37.1788 9.51634C36.8527 9.2577 36.4707 9.07007 36.0657 8.97289C35.7345 8.88879 35.3898 8.93639 35.053 8.90188C34.1505 8.86142 33.2417 8.71901 32.3992 8.38302C31.7145 8.12082 31.0997 7.70034 30.5673 7.19973C30.2151 6.86533 29.8838 6.50792 29.5141 6.19256C29.4304 6.12592 29.2841 6.03746 29.2004 6.15051C28.9449 6.41906 28.6371 6.6535 28.2713 6.74196C27.5926 6.90737 26.8849 6.73799 26.2526 6.47936C26.0368 6.39526 25.8274 6.29649 25.6164 6.20128C25.3062 6.06403 25.0071 5.88037 24.6695 5.81968C24.5735 5.79032 24.5017 5.85816 24.4573 5.93353C24.3696 6.14615 24.4323 6.46587 24.1724 6.56663C23.6714 6.69356 23.1189 6.28855 23.0657 5.77922C23.0697 5.4587 23.2331 5.14374 23.4997 4.96325C23.8964 4.68874 24.3886 4.61179 24.8587 4.56736C25.1669 4.563 25.4779 4.59671 25.777 4.67526C25.8718 4.69747 25.9734 4.70223 26.069 4.67764C26.1638 4.61179 26.2253 4.50389 26.2368 4.38885C26.2756 4.1798 26.238 3.9176 26.0333 3.80613C25.8064 3.69109 25.5461 3.59629 25.2891 3.65381C25.0872 3.68713 24.8912 3.80375 24.6822 3.75179C24.4394 3.67721 24.3026 3.4515 24.124 3.28886C23.957 3.11908 23.7194 3.03856 23.5616 2.85846C23.4457 2.72954 23.41 2.52208 23.5017 2.37094C23.6191 2.19125 23.8436 2.11985 23.9566 1.93618C24.0558 1.78465 24.0356 1.59424 24.0947 1.42923C24.207 1.20986 24.47 1.17059 24.6504 1.03056C24.8317 0.895691 24.9416 0.690608 25.0439 0.494648C25.0554 0.474417 25.0789 0.433956 25.0908 0.413725C25.151 0.291548 25.2098 0.16461 25.3129 0.070994C25.4367 0.089638 25.5057 0.200708 25.5771 0.290755C25.6628 0.389925 25.731 0.508929 25.8488 0.575174C25.8714 0.569224 25.9166 0.557324 25.9389 0.551373C26.0955 0.414122 26.1999 0.225302 26.37 0.102728C26.4216 0.062267 26.514 0.0432265 26.5557 0.107885C26.7263 0.330026 26.8476 0.585091 26.973 0.834206C27.8124 0.875857 28.6168 1.16821 29.3717 1.52165C30.2393 1.94491 31.0532 2.4713 31.8292 3.04451C32.2104 3.3198 32.5749 3.6185 32.9399 3.91522C33.4452 4.33253 33.9288 4.77601 34.4306 5.19768C35.0153 5.72844 35.6627 6.1874 36.3521 6.57218C36.6119 6.713 36.8785 6.84272 37.1459 6.96926C37.8301 7.28224 38.5834 7.47066 39.3395 7.42464C39.6426 7.42187 39.9353 7.31952 40.2074 7.19298C41.0036 6.80067 41.6156 6.10529 42.0441 5.3393C42.0798 5.27107 42.1147 5.20244 42.1464 5.13223C42.3245 4.75896 42.4768 4.37418 42.6351 3.99217C42.8204 3.53044 43.0223 3.07545 43.2519 2.63434C43.6213 1.95245 44.0933 1.31657 44.6971 0.823892C45.0279 0.556133 45.3825 0.314555 45.7685 0.132876Z" fill="#0C1B43"></path>
  <path d="M0 12.0166C2.08416 12.015 4.16831 12.0162 6.25207 12.0158C6.56743 12.0126 6.88636 12.1539 7.0736 12.4109C7.23306 12.6061 7.28899 12.8631 7.28383 13.1102C7.27907 15.2249 7.28423 17.34 7.28066 19.4547C7.32192 20.0034 6.84193 20.5147 6.29412 20.5155C5.28576 20.5163 4.2774 20.5171 3.26904 20.5151C3.21231 20.5123 3.15678 20.5194 3.10283 20.5369C3.12703 21.4798 3.08895 22.4251 3.12187 23.368C2.08138 23.3684 1.04049 23.3672 0 23.3684C0.00119004 19.5845 0.00039668 15.8005 0 12.0166ZM3.10878 13.3717C3.11156 15.2424 3.10838 17.1135 3.11037 18.9847C3.11592 19.0287 3.12346 19.0727 3.13258 19.1172C3.39518 19.0961 3.68555 19.1731 3.92396 19.0311C4.09136 18.9319 4.1818 18.734 4.17228 18.5432C4.17426 16.9973 4.17426 15.4515 4.17267 13.9056C4.17664 13.6577 3.9906 13.4446 3.75973 13.3764C3.54275 13.3669 3.32576 13.3732 3.10878 13.3717Z" fill="#0C1B43"></path>
  <path d="M8.33854 12.0174C9.37982 12.0142 10.4215 12.0158 11.4628 12.0166C11.4683 15.1706 11.4533 18.3246 11.4616 21.4786C11.4533 21.7932 11.7809 22.072 12.0903 21.9959C12.2439 21.9606 12.3692 21.8547 12.4565 21.7269C12.487 21.6484 12.5172 21.5675 12.512 21.4822C12.51 18.327 12.512 15.1722 12.5112 12.0174C13.5505 12.015 14.5898 12.015 15.6291 12.017C15.6275 15.3967 15.6287 18.776 15.6283 22.1553C15.6259 22.3652 15.6501 22.5838 15.5684 22.7833C15.543 22.8364 15.5169 22.8896 15.4875 22.9412C15.3249 23.1899 15.0397 23.3716 14.7374 23.368C12.94 23.368 11.1423 23.3676 9.34452 23.3684C9.12278 23.3807 8.8927 23.3248 8.71539 23.1875C8.46468 23.0046 8.33219 22.6948 8.33814 22.3886C8.33894 18.9315 8.33814 15.4745 8.33854 12.0174Z" fill="#0C1B43"></path>
  <path d="M16.6954 12.9905C16.6919 12.4701 17.1667 12.0179 17.6816 12.0167C20.788 12.0147 23.8948 12.0167 27.0012 12.0159C27.1999 12.0155 27.4082 12.0238 27.5863 12.1226C27.9369 12.2983 28.1607 12.6791 28.1547 13.0702C28.1587 16.5015 28.1547 19.9332 28.1567 23.3649C27.115 23.3728 26.0729 23.3653 25.0313 23.3684C25.0309 20.2133 25.0309 17.0577 25.0313 13.9021C25.04 13.6565 24.8563 13.4463 24.629 13.3769C24.5422 13.3713 24.4553 13.3709 24.3688 13.3769C24.1629 13.4503 23.9777 13.6296 23.9733 13.8596C23.9713 17.0287 23.9761 20.1982 23.9713 23.3677C22.936 23.3692 21.9007 23.3673 20.8653 23.3684C20.8665 20.214 20.8653 17.0597 20.8661 13.9053C20.8741 13.6768 20.7118 13.4253 20.4742 13.4015L20.4813 13.3741C20.3044 13.3566 20.1101 13.382 19.9764 13.5094C19.8637 13.6062 19.8118 13.7565 19.8086 13.9017C19.8066 17.0569 19.8114 20.2121 19.8062 23.3677C18.7681 23.3704 17.7296 23.3649 16.6915 23.37C16.699 19.9102 16.6911 16.4504 16.6954 12.9905Z" fill="#0C1B43"></path>
  <path d="M29.3245 12.5533C29.4979 12.2296 29.8497 12.0178 30.2175 12.017C31.8415 12.0146 33.4659 12.0166 35.0903 12.0158C35.3402 12.0186 35.5988 11.994 35.8388 12.0824C36.1403 12.1999 36.3819 12.4621 36.4604 12.7774C36.5072 12.9242 36.4926 13.0797 36.4941 13.2316C36.4937 16.6097 36.4945 19.9883 36.4937 23.3664C35.4544 23.3668 34.4147 23.3727 33.3754 23.3636C33.3774 22.414 33.3782 21.4643 33.3754 20.5147C33.0268 20.5206 32.6781 20.5198 32.3294 20.5151C32.3127 21.4651 32.3231 22.4167 32.3242 23.3676C31.2845 23.368 30.2452 23.3688 29.2055 23.3672C29.2012 19.9478 29.2055 16.5284 29.2036 13.1086C29.2008 12.9171 29.2432 12.7266 29.3245 12.5533ZM32.5111 13.4978C32.3917 13.595 32.3151 13.7441 32.323 13.9C32.3199 15.6383 32.3215 17.3769 32.3219 19.1156C32.6733 19.1168 33.0244 19.1183 33.3758 19.1148C33.3786 17.3769 33.3758 15.6391 33.3774 13.9008C33.3814 13.7655 33.3247 13.6342 33.2358 13.5343C33.0486 13.3451 32.7142 13.3205 32.5111 13.4978Z" fill="#0C1B43"></path>
  <path d="M38.4982 20.6774C39.0694 20.5151 39.7326 20.7757 40.0333 21.2894C40.2689 21.6647 40.3058 22.1554 40.1333 22.5628C40.0345 22.8107 39.856 23.019 39.6446 23.1788C39.4105 23.3379 39.1293 23.4299 38.8449 23.4152C38.8389 23.4248 38.827 23.4434 38.8211 23.4529L38.7889 23.4204C38.3018 23.4021 37.8484 23.105 37.6219 22.6762C37.4973 22.4164 37.4283 22.1209 37.4811 21.8337C37.5477 21.2926 37.9666 20.8079 38.4982 20.6774ZM38.3367 20.9511C38.0567 21.1062 37.8436 21.3624 37.7385 21.6647C37.5866 22.1601 37.7794 22.7468 38.2205 23.0293C38.5525 23.2609 39.0095 23.2772 39.3713 23.1046C39.6481 22.9483 39.8885 22.6933 39.9611 22.3767L39.9798 22.3747C40.0413 22.0796 40.0357 21.7591 39.8921 21.4874C39.7537 21.1978 39.4915 20.9765 39.1864 20.8797C38.9052 20.794 38.5997 20.8237 38.3367 20.9511Z" fill="#0C1B43"></path>
  <path d="M38.3602 22.8392C38.3594 22.3021 38.3594 21.765 38.3602 21.2279C38.6351 21.2342 38.9445 21.1834 39.1837 21.3536C39.3812 21.5012 39.3816 21.7991 39.2491 21.9899C39.1884 22.0684 39.1028 22.1192 39.0131 22.1577C39.1444 22.4016 39.3622 22.5936 39.4959 22.8368C39.3781 22.834 39.2595 22.8439 39.1424 22.8324C38.983 22.6242 38.8231 22.4151 38.6716 22.2009C38.6454 22.4132 38.6989 22.6333 38.6402 22.8404C38.5466 22.8352 38.453 22.8356 38.3602 22.8392ZM38.6656 21.5C38.6652 21.6456 38.666 21.7912 38.664 21.9367C38.7676 21.9316 38.883 21.9371 38.9711 21.8733C39.0492 21.8003 39.0798 21.6555 38.9941 21.5773C38.9104 21.4885 38.7755 21.504 38.6656 21.5Z" fill="#0C1B43"></path>
</svg>
